<mxfile host="app.diagrams.net" modified="2024-06-28T22:04:36.191Z" agent="Mozilla/5.0 (Windows NT 10.0; Win64; x64) AppleWebKit/537.36 (KHTML, like Gecko) Chrome/126.0.0.0 Safari/537.36" etag="QWnR7v--BJLT8_kLf7or" version="24.6.4" type="github">
  <diagram name="Page-1" id="VMH3fASrGDSSb0b41Nlk">
    <mxGraphModel dx="960" dy="1519" grid="1" gridSize="10" guides="1" tooltips="1" connect="1" arrows="1" fold="1" page="1" pageScale="1" pageWidth="850" pageHeight="1100" math="0" shadow="0">
      <root>
        <mxCell id="0" />
        <mxCell id="1" parent="0" />
        <mxCell id="jXvfpEJ4YAjqif7fGlh9-20" value="" style="rounded=0;whiteSpace=wrap;html=1;" vertex="1" parent="1">
          <mxGeometry x="330" y="-960" width="500" height="430" as="geometry" />
        </mxCell>
        <mxCell id="jXvfpEJ4YAjqif7fGlh9-1" value="Executor Node 1" style="rounded=0;whiteSpace=wrap;html=1;" vertex="1" parent="1">
          <mxGeometry x="430" y="-890" width="120" height="60" as="geometry" />
        </mxCell>
        <mxCell id="jXvfpEJ4YAjqif7fGlh9-2" value="" style="rounded=0;whiteSpace=wrap;html=1;" vertex="1" parent="1">
          <mxGeometry x="30" y="-850" width="120" height="60" as="geometry" />
        </mxCell>
        <mxCell id="jXvfpEJ4YAjqif7fGlh9-6" style="edgeStyle=orthogonalEdgeStyle;rounded=0;orthogonalLoop=1;jettySize=auto;html=1;entryX=0;entryY=0.5;entryDx=0;entryDy=0;" edge="1" parent="1" source="jXvfpEJ4YAjqif7fGlh9-3" target="jXvfpEJ4YAjqif7fGlh9-1">
          <mxGeometry relative="1" as="geometry" />
        </mxCell>
        <mxCell id="jXvfpEJ4YAjqif7fGlh9-7" style="edgeStyle=orthogonalEdgeStyle;rounded=0;orthogonalLoop=1;jettySize=auto;html=1;entryX=0;entryY=0.5;entryDx=0;entryDy=0;" edge="1" parent="1" source="jXvfpEJ4YAjqif7fGlh9-3" target="jXvfpEJ4YAjqif7fGlh9-4">
          <mxGeometry relative="1" as="geometry" />
        </mxCell>
        <mxCell id="jXvfpEJ4YAjqif7fGlh9-8" style="edgeStyle=orthogonalEdgeStyle;rounded=0;orthogonalLoop=1;jettySize=auto;html=1;entryX=0;entryY=0.5;entryDx=0;entryDy=0;" edge="1" parent="1" source="jXvfpEJ4YAjqif7fGlh9-3" target="jXvfpEJ4YAjqif7fGlh9-5">
          <mxGeometry relative="1" as="geometry" />
        </mxCell>
        <mxCell id="jXvfpEJ4YAjqif7fGlh9-3" value="Job Definition" style="shape=cylinder3;whiteSpace=wrap;html=1;boundedLbl=1;backgroundOutline=1;size=15;" vertex="1" parent="1">
          <mxGeometry x="260" y="-1060" width="60" height="80" as="geometry" />
        </mxCell>
        <mxCell id="jXvfpEJ4YAjqif7fGlh9-4" value="Executor Node 2" style="rounded=0;whiteSpace=wrap;html=1;" vertex="1" parent="1">
          <mxGeometry x="430" y="-820" width="120" height="60" as="geometry" />
        </mxCell>
        <mxCell id="jXvfpEJ4YAjqif7fGlh9-5" value="Executor Node 3" style="rounded=0;whiteSpace=wrap;html=1;" vertex="1" parent="1">
          <mxGeometry x="430" y="-740" width="120" height="60" as="geometry" />
        </mxCell>
        <mxCell id="jXvfpEJ4YAjqif7fGlh9-9" style="edgeStyle=orthogonalEdgeStyle;rounded=0;orthogonalLoop=1;jettySize=auto;html=1;entryX=0;entryY=0.5;entryDx=0;entryDy=0;entryPerimeter=0;" edge="1" parent="1" source="jXvfpEJ4YAjqif7fGlh9-2" target="jXvfpEJ4YAjqif7fGlh9-3">
          <mxGeometry relative="1" as="geometry" />
        </mxCell>
        <mxCell id="jXvfpEJ4YAjqif7fGlh9-10" value="Redis" style="shape=cylinder3;whiteSpace=wrap;html=1;boundedLbl=1;backgroundOutline=1;size=15;" vertex="1" parent="1">
          <mxGeometry x="650" y="-1070" width="60" height="50" as="geometry" />
        </mxCell>
        <mxCell id="jXvfpEJ4YAjqif7fGlh9-11" style="edgeStyle=orthogonalEdgeStyle;rounded=0;orthogonalLoop=1;jettySize=auto;html=1;entryX=0;entryY=0.5;entryDx=0;entryDy=0;entryPerimeter=0;" edge="1" parent="1" source="jXvfpEJ4YAjqif7fGlh9-1" target="jXvfpEJ4YAjqif7fGlh9-10">
          <mxGeometry relative="1" as="geometry" />
        </mxCell>
        <mxCell id="jXvfpEJ4YAjqif7fGlh9-12" style="edgeStyle=orthogonalEdgeStyle;rounded=0;orthogonalLoop=1;jettySize=auto;html=1;entryX=0;entryY=0;entryDx=0;entryDy=30;entryPerimeter=0;" edge="1" parent="1" source="jXvfpEJ4YAjqif7fGlh9-4" target="jXvfpEJ4YAjqif7fGlh9-10">
          <mxGeometry relative="1" as="geometry" />
        </mxCell>
        <mxCell id="jXvfpEJ4YAjqif7fGlh9-13" style="edgeStyle=orthogonalEdgeStyle;rounded=0;orthogonalLoop=1;jettySize=auto;html=1;entryX=0;entryY=1;entryDx=0;entryDy=-15;entryPerimeter=0;" edge="1" parent="1" source="jXvfpEJ4YAjqif7fGlh9-5" target="jXvfpEJ4YAjqif7fGlh9-10">
          <mxGeometry relative="1" as="geometry" />
        </mxCell>
        <mxCell id="jXvfpEJ4YAjqif7fGlh9-24" style="edgeStyle=orthogonalEdgeStyle;rounded=0;orthogonalLoop=1;jettySize=auto;html=1;exitX=0.5;exitY=1;exitDx=0;exitDy=0;" edge="1" parent="1" source="jXvfpEJ4YAjqif7fGlh9-21" target="jXvfpEJ4YAjqif7fGlh9-23">
          <mxGeometry relative="1" as="geometry" />
        </mxCell>
        <mxCell id="jXvfpEJ4YAjqif7fGlh9-21" value="Kube Scheduler" style="rounded=0;whiteSpace=wrap;html=1;" vertex="1" parent="1">
          <mxGeometry x="675" y="-940" width="105" height="30" as="geometry" />
        </mxCell>
        <mxCell id="jXvfpEJ4YAjqif7fGlh9-22" style="edgeStyle=orthogonalEdgeStyle;rounded=0;orthogonalLoop=1;jettySize=auto;html=1;entryX=0;entryY=0.5;entryDx=0;entryDy=0;" edge="1" parent="1" source="jXvfpEJ4YAjqif7fGlh9-4" target="jXvfpEJ4YAjqif7fGlh9-21">
          <mxGeometry relative="1" as="geometry" />
        </mxCell>
        <mxCell id="jXvfpEJ4YAjqif7fGlh9-23" value="POD for Job" style="rounded=0;whiteSpace=wrap;html=1;" vertex="1" parent="1">
          <mxGeometry x="667.5" y="-870" width="120" height="60" as="geometry" />
        </mxCell>
        <mxCell id="jXvfpEJ4YAjqif7fGlh9-25" style="edgeStyle=orthogonalEdgeStyle;rounded=0;orthogonalLoop=1;jettySize=auto;html=1;entryX=1;entryY=0.245;entryDx=0;entryDy=0;entryPerimeter=0;" edge="1" parent="1" source="jXvfpEJ4YAjqif7fGlh9-23" target="jXvfpEJ4YAjqif7fGlh9-3">
          <mxGeometry relative="1" as="geometry">
            <Array as="points">
              <mxPoint x="727" y="-900" />
              <mxPoint x="494" y="-900" />
              <mxPoint x="494" y="-1040" />
            </Array>
          </mxGeometry>
        </mxCell>
      </root>
    </mxGraphModel>
  </diagram>
</mxfile>
